<svg xmlns="http://www.w3.org/2000/svg" viewBox="0 0 1360 900" font-family="Helvetica,Arial,sans-serif">
<rect width="1360" height="900" fill="#ffffff"/>
<rect x="26" y="26" width="1308" height="848" fill="none" stroke="#111" stroke-width="1.5"/>
<path d="M 412.11 272.34 L 1206.33 550.40" stroke="#111" stroke-width="0.7" stroke-dasharray="12 4 2 4" fill="none"/>
<path d="M 878.10 277.66 L 255.25 722.43" stroke="#111" stroke-width="0.7" stroke-dasharray="12 4 2 4" fill="none"/>
<path d="M 802.80 459.79 L 801.75 447.41 M 805.91 469.94 L 802.80 459.79 M 810.88 477.27 L 805.91 469.94 M 817.15 481.26 L 810.88 477.27 M 825.20 481.96 L 817.15 481.26 M 833.70 479.05 L 825.20 481.96 M 842.46 472.80 L 833.70 479.05 M 850.96 463.56 L 842.46 472.80 M 858.72 451.88 L 850.96 463.56 M 865.28 438.43 L 858.72 451.88 M 870.25 423.99 L 865.28 438.43 M 873.36 409.41 L 870.25 423.99 M 874.41 395.52 L 873.36 409.41 M 873.36 383.15 L 874.41 395.52 M 870.25 373.00 L 873.36 383.15 M 865.28 365.67 L 870.25 373.00 M 859.01 361.68 L 865.28 365.67 M 850.96 360.98 L 859.01 361.68 M 842.46 363.88 L 850.96 360.98 M 833.70 370.14 L 842.46 363.88 M 825.20 379.38 L 833.70 370.14 M 817.44 391.06 L 825.20 379.38 M 810.88 404.51 L 817.44 391.06 M 805.91 418.95 L 810.88 404.51 M 802.80 433.53 L 805.91 418.95 M 801.75 447.41 L 802.80 433.53 M 592.11 373.68 L 592.11 327.53 M 595.02 374.70 L 592.11 373.68 M 592.11 580.66 L 775.84 644.98 M 786.39 454.04 L 785.33 441.67 M 789.49 464.19 L 786.39 454.04 M 794.47 471.52 L 789.49 464.19 M 800.73 475.51 L 794.47 471.52 M 834.55 355.23 L 842.60 355.94 M 826.05 358.14 L 834.55 355.23 M 817.29 364.39 L 826.05 358.14 M 808.78 373.63 L 817.29 364.39 M 801.03 385.31 L 808.78 373.63 M 794.47 398.76 L 801.03 385.31 M 789.49 413.20 L 794.47 398.76 M 786.39 427.78 L 789.49 413.20 M 785.33 441.67 L 786.39 427.78 M 775.84 644.98 L 775.84 391.85 M 867.49 579.54 L 775.84 644.98 M 613.59 315.29 L 610.68 314.27 M 610.68 314.27 L 592.11 327.53 M 592.11 327.53 L 775.84 391.85 M 867.49 326.41 L 775.84 391.85 M 683.76 262.08 L 665.19 275.34 M 665.19 275.34 L 667.49 276.80 M 668.10 276.36 L 665.19 275.34 M 668.10 276.36 L 613.59 315.29 M 595.02 374.70 L 595.02 395.58 M 595.02 395.58 L 592.11 394.56 M 592.11 580.66 L 592.11 394.56 M 867.49 579.54 L 867.49 432.00 M 867.49 368.93 L 867.49 326.41 M 683.76 262.08 L 867.49 326.41" fill="none" stroke="#111" stroke-width="1.10" stroke-linecap="round" stroke-linejoin="round"/>
<path d="M 296.62 613.52 L 296.10 613.48 M 300.09 612.33 L 296.62 613.52 M 303.67 609.78 L 300.09 612.33 M 307.14 606.01 L 303.67 609.78 M 310.31 601.24 L 307.14 606.01 M 312.98 595.75 L 310.31 601.24 M 315.01 589.86 L 312.98 595.75 M 316.28 583.91 L 315.01 589.86 M 316.71 578.24 L 316.28 583.91 M 316.28 573.19 L 316.71 578.24 M 315.01 569.05 L 316.28 573.19 M 312.98 566.06 L 315.01 569.05 M 312.96 566.04 L 312.98 566.06 M 292.78 606.32 L 292.35 601.27 M 294.05 610.47 L 292.78 606.32 M 296.08 613.46 L 294.05 610.47 M 298.63 615.09 L 296.08 613.46 M 301.92 615.38 L 298.63 615.09 M 305.39 614.19 L 301.92 615.38 M 308.96 611.64 L 305.39 614.19 M 312.44 607.87 L 308.96 611.64 M 315.60 603.10 L 312.44 607.87 M 318.28 597.61 L 315.60 603.10 M 320.31 591.71 L 318.28 597.61 M 321.58 585.76 L 320.31 591.71 M 322.01 580.09 L 321.58 585.76 M 321.58 575.04 L 322.01 580.09 M 320.31 570.90 L 321.58 575.04 M 318.28 567.91 L 320.31 570.90 M 315.72 566.28 L 318.28 567.91 M 312.44 565.99 L 315.72 566.28 M 308.96 567.18 L 312.44 565.99 M 305.39 569.73 L 308.96 567.18 M 301.92 573.50 L 305.39 569.73 M 298.75 578.27 L 301.92 573.50 M 296.08 583.76 L 298.75 578.27 M 294.05 589.66 L 296.08 583.76 M 292.78 595.61 L 294.05 589.66 M 292.35 601.27 L 292.78 595.61 M 313.12 633.17 L 310.44 635.68 M 317.42 628.37 L 313.12 633.17 M 323.87 619.12 L 317.42 628.37 M 329.46 608.42 L 323.87 619.12 M 333.91 596.80 L 329.46 608.42 M 336.98 584.86 L 333.91 596.80 M 338.52 573.23 L 336.98 584.86 M 338.31 561.10 L 338.52 563.37 M 336.98 553.94 L 338.31 561.10 M 333.91 546.40 L 336.98 553.94 M 329.46 541.13 L 333.91 546.40 M 323.87 538.41 L 329.46 541.13 M 317.42 538.37 L 323.87 538.41 M 310.44 541.03 L 317.42 538.37 M 277.44 627.66 L 275.86 618.41 M 280.50 635.06 L 277.44 627.66 M 284.89 640.24 L 280.50 635.06 M 290.40 642.94 L 284.89 640.24 M 296.75 643.03 L 290.40 642.94 M 303.62 640.50 L 296.75 643.03 M 296.75 553.22 L 303.62 545.94 M 290.40 562.38 L 296.75 553.22 M 284.89 572.95 L 290.40 562.38 M 280.50 584.41 L 284.89 572.95 M 277.44 596.18 L 280.50 584.41 M 275.86 607.68 L 277.44 596.18 M 264.83 627.56 L 263.75 614.93 M 267.99 637.92 L 264.83 627.56 M 273.07 645.40 L 267.99 637.92 M 279.76 649.57 L 273.07 645.40 M 287.68 650.19 L 279.76 649.57 M 296.35 647.22 L 287.68 650.19 M 305.29 640.84 L 296.35 647.22 M 307.81 638.44 L 305.29 640.84 M 336.82 549.36 L 337.47 553.79 M 333.65 539.00 L 336.82 549.36 M 328.57 531.52 L 333.65 539.00 M 321.88 527.35 L 328.57 531.52 M 313.97 526.73 L 321.88 527.35 M 305.29 529.70 L 313.97 526.73 M 296.35 536.08 L 305.29 529.70 M 287.68 545.51 L 296.35 536.08 M 279.76 557.43 L 287.68 545.51 M 273.07 571.16 L 279.76 557.43 M 267.99 585.89 L 273.07 571.16 M 264.83 600.77 L 267.99 585.89 M 263.75 614.93 L 264.83 600.77 M 266.26 305.84 L 259.96 303.64 M 282.73 617.38 L 281.22 618.73 M 284.15 615.55 L 282.73 617.38 M 285.40 613.35 L 284.15 615.55 M 286.41 610.92 L 285.40 613.35 M 287.12 608.38 L 286.41 610.92 M 287.48 605.90 L 287.12 608.38 M 287.48 603.60 L 287.48 605.90 M 287.12 601.63 L 287.48 603.60 M 286.41 600.11 L 287.12 601.63 M 285.40 599.11 L 286.41 600.11 M 284.86 598.84 L 285.40 599.11 M 284.15 598.70 L 284.86 598.84 M 282.73 598.90 L 284.15 598.70 M 281.22 599.70 L 282.73 598.90 M 281.22 618.73 L 274.01 616.21 M 281.22 618.73 L 278.61 620.60 M 281.22 599.70 L 278.61 601.56 M 278.61 620.60 L 275.86 618.41 M 275.39 618.14 L 275.86 618.41 M 274.92 617.87 L 275.39 618.14 M 274.44 617.60 L 274.92 617.87 M 273.95 617.32 L 274.44 617.60 M 278.61 601.56 L 275.86 607.68 M 275.39 608.12 L 275.86 607.68 M 274.92 608.55 L 275.39 608.12 M 274.44 608.99 L 274.92 608.55 M 273.95 609.44 L 274.44 608.99 M 274.01 616.35 L 273.95 617.32 M 274.04 615.38 L 274.01 616.35 M 274.07 614.40 L 274.04 615.38 M 274.07 613.42 L 274.07 614.40 M 274.07 612.43 L 274.07 613.42 M 274.04 611.44 L 274.07 612.43 M 274.01 610.44 L 274.04 611.44 M 273.95 609.44 L 274.01 610.44 M 309.04 540.84 L 310.44 541.03 M 307.63 541.04 L 309.04 540.84 M 306.33 541.69 L 307.63 541.04 M 308.65 559.70 L 307.18 561.02 M 310.04 557.93 L 308.65 559.70 M 311.28 555.80 L 310.04 557.93 M 312.28 553.43 L 311.28 555.80 M 313.01 550.96 L 312.28 553.43 M 313.40 548.51 L 313.01 550.96 M 313.46 546.23 L 313.40 548.51 M 313.16 544.25 L 313.46 546.23 M 312.54 542.66 L 313.16 544.25 M 311.61 541.57 L 312.54 542.66 M 310.81 541.13 L 311.61 541.57 M 310.44 541.03 L 310.81 541.13 M 307.18 561.02 L 300.87 558.81 M 307.18 561.02 L 304.57 562.88 M 305.67 542.15 L 306.33 541.69 M 305.00 542.61 L 305.67 542.15 M 304.30 543.06 L 305.00 542.61 M 303.60 543.51 L 304.30 543.06 M 304.57 562.88 L 300.87 559.94 M 303.61 544.12 L 303.60 543.51 M 303.62 544.74 L 303.61 544.12 M 303.62 545.34 L 303.62 544.74 M 303.62 545.94 L 303.62 545.34 M 303.62 545.94 L 300.87 552.06 M 300.87 559.94 L 300.87 552.06 M 304.57 622.22 L 300.87 630.43 M 307.18 620.35 L 304.57 622.22 M 311.61 633.46 L 310.44 635.68 M 312.54 631.05 L 311.61 633.46 M 313.16 628.57 L 312.54 631.05 M 313.46 626.16 L 313.16 628.57 M 313.40 623.96 L 313.46 626.16 M 313.01 622.09 L 313.40 623.96 M 312.28 620.64 L 313.01 622.09 M 311.28 619.71 L 312.28 620.64 M 310.81 619.50 L 311.28 619.71 M 310.04 619.35 L 310.81 619.50 M 308.65 619.56 L 310.04 619.35 M 307.18 620.35 L 308.65 619.56 M 307.63 638.10 L 306.33 639.09 M 309.04 636.93 L 307.63 638.10 M 310.44 635.68 L 309.04 636.93 M 306.33 639.09 L 300.87 637.18 M 305.67 639.55 L 306.33 639.09 M 305.00 640.01 L 305.67 639.55 M 304.30 640.46 L 305.00 640.01 M 303.60 640.91 L 304.30 640.46 M 303.61 640.81 L 303.60 640.91 M 303.62 640.70 L 303.61 640.81 M 303.62 640.60 L 303.62 640.70 M 303.62 640.50 L 303.62 640.60 M 303.62 640.50 L 300.87 638.31 M 300.87 638.31 L 300.87 630.43 M 342.27 251.57 L 335.96 249.36 M 337.74 562.37 L 338.52 563.37 M 336.76 561.78 L 337.74 562.37 M 335.64 561.63 L 336.76 561.78 M 334.41 561.92 L 335.64 561.63 M 333.13 562.64 L 334.41 561.92 M 338.55 571.29 L 338.52 573.23 M 338.58 569.28 L 338.55 571.29 M 338.58 567.36 L 338.58 569.28 M 338.58 565.67 L 338.58 567.36 M 338.55 564.33 L 338.58 565.67 M 338.52 563.37 L 338.55 564.33 M 334.41 580.55 L 333.13 581.67 M 335.64 579.08 L 334.41 580.55 M 336.77 577.32 L 335.64 579.08 M 337.74 575.34 L 336.77 577.32 M 338.52 573.23 L 337.74 575.34 M 333.13 581.67 L 326.83 579.46 M 333.13 581.67 L 330.52 583.53 M 333.13 562.64 L 330.52 564.50 M 330.52 583.53 L 326.83 580.59 M 330.52 564.50 L 326.83 572.71 M 326.83 580.59 L 326.83 572.71 M 257.69 635.74 L 256.33 620.23 M 261.69 648.36 L 257.69 635.74 M 268.08 657.31 L 261.69 648.36 M 275.18 661.67 L 268.08 657.31 M 276.46 662.06 L 275.18 661.67 M 286.34 662.32 L 276.46 662.06 M 297.10 658.05 L 286.34 662.32 M 308.09 649.54 L 297.10 658.05 M 318.64 637.29 L 308.09 649.54 M 328.09 622.06 L 318.64 637.29 M 335.88 604.78 L 328.09 622.06 M 341.53 586.49 L 335.88 604.78 M 344.69 568.33 L 341.53 586.49 M 257.14 321.03 L 259.78 321.95 M 256.33 620.23 L 256.33 321.61 M 240.45 614.67 L 256.33 620.23 M 357.03 559.52 L 344.69 568.33 M 357.03 559.52 L 357.03 436.37 M 357.03 436.37 L 339.75 448.71 M 341.14 430.81 L 357.03 436.37 M 339.75 448.71 L 339.75 359.14 M 348.13 353.16 L 339.75 359.14 M 267.77 304.49 L 266.26 305.84 M 269.19 302.66 L 267.77 304.49 M 270.44 300.47 L 269.19 302.66 M 271.45 298.03 L 270.44 300.47 M 272.16 295.49 L 271.45 298.03 M 272.52 293.01 L 272.16 295.49 M 272.52 290.71 L 272.52 293.01 M 272.16 288.74 L 272.52 290.71 M 271.45 287.22 L 272.16 288.74 M 270.44 286.22 L 271.45 287.22 M 269.89 285.96 L 270.44 286.22 M 269.19 285.81 L 269.89 285.96 M 267.77 286.01 L 269.19 285.81 M 266.26 286.81 L 267.77 286.01 M 263.65 307.71 L 266.26 305.84 M 263.65 288.68 L 266.26 286.81 M 259.96 304.77 L 263.65 307.71 M 259.96 296.89 L 263.65 288.68 M 259.96 296.89 L 259.96 304.77 M 335.96 242.61 L 339.66 234.40 M 339.66 234.40 L 342.27 232.54 M 343.77 250.22 L 342.27 251.57 M 345.20 248.39 L 343.77 250.22 M 346.45 246.19 L 345.20 248.39 M 347.45 243.76 L 346.45 246.19 M 348.16 241.22 L 347.45 243.76 M 348.52 238.73 L 348.16 241.22 M 348.52 236.44 L 348.52 238.73 M 348.16 234.47 L 348.52 236.44 M 347.45 232.95 L 348.16 234.47 M 346.45 231.95 L 347.45 232.95 M 345.90 231.68 L 346.45 231.95 M 345.20 231.54 L 345.90 231.68 M 343.77 231.74 L 345.20 231.54 M 342.27 232.54 L 343.77 231.74 M 339.66 253.44 L 342.27 251.57 M 335.96 250.50 L 339.66 253.44 M 335.96 242.61 L 335.96 250.50 M 351.57 256.40 L 259.78 321.95 M 259.78 321.95 L 259.78 319.15 M 259.78 319.15 L 255.33 322.33 M 236.00 315.56 L 255.33 322.33 M 255.33 322.33 L 255.33 210.37 M 520.29 635.63 L 513.99 633.42 M 494.34 693.34 L 488.04 691.14 M 520.29 714.00 L 513.99 711.79 M 546.25 656.28 L 539.94 654.07 M 351.57 141.65 L 351.57 256.40 M 348.13 258.86 L 348.13 353.16 M 462.70 237.75 L 456.40 235.54 M 462.70 353.63 L 456.40 351.42 M 538.70 183.48 L 532.40 181.27 M 538.70 299.35 L 532.40 297.15 M 439.06 386.65 L 451.76 391.10 M 439.06 201.93 L 451.76 206.38 M 459.92 691.50 L 475.80 697.07 M 456.21 466.30 L 456.21 390.73 M 453.58 389.80 L 456.21 390.73 M 464.17 197.52 L 451.46 193.07 M 392.93 302.70 L 395.78 304.07 M 390.25 300.69 L 392.93 302.70 M 387.88 298.13 L 390.25 300.69 M 385.98 295.20 L 387.88 298.13 M 384.64 292.04 L 385.98 295.20 M 383.96 288.85 L 384.64 292.04 M 383.96 285.81 L 383.96 288.85 M 384.64 283.11 L 383.96 285.81 M 385.98 280.89 L 384.64 283.11 M 387.33 279.64 L 385.98 280.89 M 387.88 279.28 L 387.33 279.64 M 390.25 278.38 L 387.88 279.28 M 392.93 278.25 L 390.25 278.38 M 395.78 278.88 L 392.93 278.25 M 398.63 280.24 L 395.78 278.88 M 401.32 282.26 L 398.63 280.24 M 403.68 284.81 L 401.32 282.26 M 405.59 287.75 L 403.68 284.81 M 406.92 290.91 L 405.59 287.75 M 407.61 294.10 L 406.92 290.91 M 407.61 297.13 L 407.61 294.10 M 406.92 299.84 L 407.61 297.13 M 405.59 302.06 L 406.92 299.84 M 404.24 303.31 L 405.59 302.06 M 403.68 303.67 L 404.24 303.31 M 401.32 304.56 L 403.68 303.67 M 398.63 304.70 L 401.32 304.56 M 395.78 304.07 L 398.63 304.70 M 439.06 289.83 L 419.61 283.02 M 419.61 344.60 L 419.61 283.02 M 428.51 338.24 L 419.61 344.60 M 439.06 351.41 L 419.61 344.60 M 392.93 369.88 L 395.78 371.24 M 390.25 367.86 L 392.93 369.88 M 387.88 365.31 L 390.25 367.86 M 385.98 362.37 L 387.88 365.31 M 384.64 359.21 L 385.98 362.37 M 383.96 356.02 L 384.64 359.21 M 383.96 352.99 L 383.96 356.02 M 384.64 350.28 L 383.96 352.99 M 385.98 348.06 L 384.64 350.28 M 387.33 346.81 L 385.98 348.06 M 387.88 346.45 L 387.33 346.81 M 390.25 345.56 L 387.88 346.45 M 392.93 345.42 L 390.25 345.56 M 395.78 346.05 L 392.93 345.42 M 398.63 347.42 L 395.78 346.05 M 401.32 349.43 L 398.63 347.42 M 403.68 351.98 L 401.32 349.43 M 405.59 354.92 L 403.68 351.98 M 406.92 358.08 L 405.59 354.92 M 407.61 361.27 L 406.92 358.08 M 407.61 364.31 L 407.61 361.27 M 406.92 367.01 L 407.61 364.31 M 405.59 369.23 L 406.92 367.01 M 404.24 370.48 L 405.59 369.23 M 403.68 370.84 L 404.24 370.48 M 401.32 371.74 L 403.68 370.84 M 398.63 371.87 L 401.32 371.74 M 395.78 371.24 L 398.63 371.87 M 456.21 466.30 L 459.92 467.59 M 339.75 372.62 L 456.21 413.39 M 506.20 680.69 L 505.89 680.90 M 509.67 676.92 L 506.20 680.69 M 512.83 672.15 L 509.67 676.92 M 515.51 666.66 L 512.83 672.15 M 517.54 660.76 L 515.51 666.66 M 518.81 654.81 L 517.54 660.76 M 519.24 649.15 L 518.81 654.81 M 518.81 644.13 L 519.24 649.15 M 459.92 691.50 L 459.92 467.59 M 461.28 707.01 L 459.92 691.50 M 465.27 719.63 L 461.28 707.01 M 471.66 728.59 L 465.27 719.63 M 478.77 732.94 L 471.66 728.59 M 241.81 630.18 L 240.45 614.67 M 245.80 642.79 L 241.81 630.18 M 252.19 651.75 L 245.80 642.79 M 259.30 656.10 L 252.19 651.75 M 240.45 614.67 L 240.45 317.12 M 236.00 315.56 L 236.00 203.61 M 341.14 430.81 L 339.75 431.80 M 351.57 141.65 L 501.63 194.18 M 351.57 141.65 L 255.33 210.37 M 236.00 203.61 L 255.33 210.37 M 236.00 203.61 L 341.14 128.53 M 521.80 634.27 L 520.29 635.63 M 523.22 632.45 L 521.80 634.27 M 524.47 630.25 L 523.22 632.45 M 525.48 627.81 L 524.47 630.25 M 526.19 625.28 L 525.48 627.81 M 526.55 622.79 L 526.19 625.28 M 526.55 620.50 L 526.55 622.79 M 526.19 618.53 L 526.55 620.50 M 525.48 617.00 L 526.19 618.53 M 524.47 616.00 L 525.48 617.00 M 523.92 615.74 L 524.47 616.00 M 523.22 615.59 L 523.92 615.74 M 521.80 615.80 L 523.22 615.59 M 520.29 616.60 L 521.80 615.80 M 517.68 637.49 L 520.29 635.63 M 517.68 618.46 L 520.29 616.60 M 513.99 634.55 L 517.68 637.49 M 513.99 626.67 L 517.68 618.46 M 513.99 626.67 L 513.99 634.55 M 495.85 691.99 L 494.34 693.34 M 497.27 690.16 L 495.85 691.99 M 498.52 687.97 L 497.27 690.16 M 499.53 685.53 L 498.52 687.97 M 500.23 683.00 L 499.53 685.53 M 500.60 680.51 L 500.23 683.00 M 500.60 678.21 L 500.60 680.51 M 500.23 676.25 L 500.60 678.21 M 499.53 674.72 L 500.23 676.25 M 498.52 673.72 L 499.53 674.72 M 497.97 673.46 L 498.52 673.72 M 497.27 673.31 L 497.97 673.46 M 495.85 673.51 L 497.27 673.31 M 494.34 674.31 L 495.85 673.51 M 491.73 695.21 L 494.34 693.34 M 491.73 676.18 L 494.34 674.31 M 488.04 692.27 L 491.73 695.21 M 488.04 684.39 L 491.73 676.18 M 488.04 684.39 L 488.04 692.27 M 505.89 680.94 L 505.46 675.89 M 507.16 685.08 L 505.89 680.94 M 509.19 688.07 L 507.16 685.08 M 511.75 689.70 L 509.19 688.07 M 515.03 689.99 L 511.75 689.70 M 518.51 688.80 L 515.03 689.99 M 522.08 686.25 L 518.51 688.80 M 525.55 682.48 L 522.08 686.25 M 528.72 677.71 L 525.55 682.48 M 531.39 672.22 L 528.72 677.71 M 533.42 666.33 L 531.39 672.22 M 534.69 660.37 L 533.42 666.33 M 535.12 654.71 L 534.69 660.37 M 534.69 649.66 L 535.12 654.71 M 533.42 645.51 L 534.69 649.66 M 531.39 642.52 L 533.42 645.51 M 528.84 640.89 L 531.39 642.52 M 525.55 640.61 L 528.84 640.89 M 522.08 641.79 L 525.55 640.61 M 518.51 644.35 L 522.08 641.79 M 515.03 648.12 L 518.51 644.35 M 511.87 652.88 L 515.03 648.12 M 509.19 658.38 L 511.87 652.88 M 507.16 664.27 L 509.19 658.38 M 505.89 670.22 L 507.16 664.27 M 505.46 675.89 L 505.89 670.22 M 521.80 712.64 L 520.29 714.00 M 523.22 710.82 L 521.80 712.64 M 524.47 708.62 L 523.22 710.82 M 525.48 706.18 L 524.47 708.62 M 526.19 703.65 L 525.48 706.18 M 526.55 701.16 L 526.19 703.65 M 526.55 698.87 L 526.55 701.16 M 526.19 696.90 L 526.55 698.87 M 525.48 695.37 L 526.19 696.90 M 524.47 694.37 L 525.48 695.37 M 523.92 694.11 L 524.47 694.37 M 523.22 693.96 L 523.92 694.11 M 521.80 694.16 L 523.22 693.96 M 520.29 694.97 L 521.80 694.16 M 517.68 715.86 L 520.29 714.00 M 517.68 696.83 L 520.29 694.97 M 513.99 712.92 L 517.68 715.86 M 513.99 705.04 L 517.68 696.83 M 513.99 705.04 L 513.99 712.92 M 547.75 654.93 L 546.25 656.28 M 549.17 653.10 L 547.75 654.93 M 550.42 650.90 L 549.17 653.10 M 551.43 648.47 L 550.42 650.90 M 552.14 645.93 L 551.43 648.47 M 552.50 643.44 L 552.14 645.93 M 552.50 641.15 L 552.50 643.44 M 552.14 639.18 L 552.50 641.15 M 551.43 637.66 L 552.14 639.18 M 550.42 636.66 L 551.43 637.66 M 549.88 636.39 L 550.42 636.66 M 549.17 636.25 L 549.88 636.39 M 547.75 636.45 L 549.17 636.25 M 546.25 637.25 L 547.75 636.45 M 543.63 658.15 L 546.25 656.28 M 543.63 639.11 L 546.25 637.25 M 539.94 655.21 L 543.63 658.15 M 539.94 647.32 L 543.63 639.11 M 539.94 647.32 L 539.94 655.21 M 475.80 377.99 L 475.80 697.07 M 576.50 636.36 L 564.16 645.17 M 477.16 712.57 L 475.80 697.07 M 481.16 725.19 L 477.16 712.57 M 487.54 734.15 L 481.16 725.19 M 494.65 738.50 L 487.54 734.15 M 495.93 738.90 L 494.65 738.50 M 505.81 739.15 L 495.93 738.90 M 516.57 734.89 L 505.81 739.15 M 527.56 726.38 L 516.57 734.89 M 538.11 714.13 L 527.56 726.38 M 547.56 698.90 L 538.11 714.13 M 555.35 681.61 L 547.56 698.90 M 561.00 663.33 L 555.35 681.61 M 564.16 645.17 L 561.00 663.33 M 439.06 386.65 L 439.06 201.93 M 451.46 193.07 L 439.06 201.93 M 474.98 213.69 L 472.61 213.59 M 483.58 210.61 L 474.98 213.69 M 492.41 204.30 L 483.58 210.61 M 501.01 195.10 L 492.41 204.30 M 508.91 183.49 L 501.01 195.10 M 515.69 170.10 L 508.91 183.49 M 520.99 155.64 L 515.69 170.10 M 524.53 140.90 L 520.99 155.64 M 456.21 371.13 L 475.80 377.99 M 576.50 306.09 L 475.80 377.99 M 544.20 126.85 L 524.53 140.90 M 537.23 145.34 L 524.53 140.90 M 464.21 236.40 L 462.70 237.75 M 465.63 234.57 L 464.21 236.40 M 466.88 232.37 L 465.63 234.57 M 467.89 229.94 L 466.88 232.37 M 468.59 227.40 L 467.89 229.94 M 468.96 224.91 L 468.59 227.40 M 468.96 222.62 L 468.96 224.91 M 468.59 220.65 L 468.96 222.62 M 467.89 219.12 L 468.59 220.65 M 466.88 218.13 L 467.89 219.12 M 466.33 217.86 L 466.88 218.13 M 465.63 217.72 L 466.33 217.86 M 464.21 217.92 L 465.63 217.72 M 462.70 218.72 L 464.21 217.92 M 460.09 239.62 L 462.70 237.75 M 460.09 220.58 L 462.70 218.72 M 456.40 236.68 L 460.09 239.62 M 456.40 228.79 L 460.09 220.58 M 456.40 228.79 L 456.40 236.68 M 464.21 352.27 L 462.70 353.63 M 465.63 350.44 L 464.21 352.27 M 466.88 348.25 L 465.63 350.44 M 467.89 345.81 L 466.88 348.25 M 468.59 343.28 L 467.89 345.81 M 468.96 340.79 L 468.59 343.28 M 468.96 338.49 L 468.96 340.79 M 468.59 336.53 L 468.96 338.49 M 467.89 335.00 L 468.59 336.53 M 466.88 334.00 L 467.89 335.00 M 466.33 333.74 L 466.88 334.00 M 465.63 333.59 L 466.33 333.74 M 464.21 333.79 L 465.63 333.59 M 462.70 334.59 L 464.21 333.79 M 460.09 355.49 L 462.70 353.63 M 460.09 336.46 L 462.70 334.59 M 456.40 352.55 L 460.09 355.49 M 456.40 344.67 L 460.09 336.46 M 456.40 344.67 L 456.40 352.55 M 540.21 182.13 L 538.70 183.48 M 541.63 180.30 L 540.21 182.13 M 542.88 178.10 L 541.63 180.30 M 543.89 175.66 L 542.88 178.10 M 544.60 173.13 L 543.89 175.66 M 544.96 170.64 L 544.60 173.13 M 544.96 168.35 L 544.96 170.64 M 544.60 166.38 L 544.96 168.35 M 543.89 164.85 L 544.60 166.38 M 542.88 163.86 L 543.89 164.85 M 542.33 163.59 L 542.88 163.86 M 541.63 163.45 L 542.33 163.59 M 540.21 163.65 L 541.63 163.45 M 538.70 164.45 L 540.21 163.65 M 536.09 185.34 L 538.70 183.48 M 536.09 166.31 L 538.70 164.45 M 532.40 182.41 L 536.09 185.34 M 532.40 174.52 L 536.09 166.31 M 532.40 174.52 L 532.40 182.41 M 532.40 290.40 L 536.09 282.19 M 536.09 282.19 L 538.70 280.32 M 540.21 298.00 L 538.70 299.35 M 541.63 296.17 L 540.21 298.00 M 542.88 293.98 L 541.63 296.17 M 543.89 291.54 L 542.88 293.98 M 544.60 289.00 L 543.89 291.54 M 544.96 286.52 L 544.60 289.00 M 544.96 284.22 L 544.96 286.52 M 544.60 282.25 L 544.96 284.22 M 543.89 280.73 L 544.60 282.25 M 542.88 279.73 L 543.89 280.73 M 542.33 279.47 L 542.88 279.73 M 541.63 279.32 L 542.33 279.47 M 540.21 279.52 L 541.63 279.32 M 538.70 280.32 L 540.21 279.52 M 536.09 301.22 L 538.70 299.35 M 532.40 298.28 L 536.09 301.22 M 532.40 290.40 L 532.40 298.28 M 451.76 391.10 L 451.76 206.38 M 456.21 387.93 L 451.76 391.10 M 464.17 197.52 L 451.76 206.38 M 456.21 387.93 L 456.21 371.13 M 467.70 207.22 L 464.17 197.52 M 473.00 214.11 L 467.70 207.22 M 478.70 217.47 L 473.00 214.11 M 479.79 217.81 L 478.70 217.47 M 487.69 218.14 L 479.79 217.81 M 496.28 215.06 L 487.69 218.14 M 505.12 208.75 L 496.28 215.06 M 513.72 199.55 L 505.12 208.75 M 521.62 187.94 L 513.72 199.55 M 528.40 174.55 L 521.62 187.94 M 533.70 160.09 L 528.40 174.55 M 537.23 145.34 L 533.70 160.09 M 556.91 299.23 L 456.21 371.13 M 556.91 131.30 L 537.23 145.34 M 401.83 296.35 L 404.68 297.71 M 399.15 294.33 L 401.83 296.35 M 396.78 291.78 L 399.15 294.33 M 394.88 288.84 L 396.78 291.78 M 393.54 285.69 L 394.88 288.84 M 392.85 282.50 L 393.54 285.69 M 392.85 279.46 L 392.85 282.50 M 393.15 278.29 L 392.85 279.46 M 404.68 297.71 L 407.31 298.30 M 428.51 338.24 L 428.51 286.14 M 439.06 341.94 L 428.51 338.24 M 401.83 363.52 L 404.68 364.89 M 399.15 361.51 L 401.83 363.52 M 396.78 358.95 L 399.15 361.51 M 394.88 356.01 L 396.78 358.95 M 393.54 352.86 L 394.88 356.01 M 392.85 349.67 L 393.54 352.86 M 392.85 346.63 L 392.85 349.67 M 393.15 345.47 L 392.85 346.63 M 404.68 364.89 L 407.31 365.47 M 341.14 128.53 L 506.84 186.54 M 576.50 306.09 L 576.50 636.36 M 556.91 299.23 L 576.50 306.09 M 544.20 126.85 L 556.91 131.30 M 556.91 131.30 L 556.91 299.23" fill="none" stroke="#111" stroke-width="1.10" stroke-linecap="round" stroke-linejoin="round"/>
<path d="M 923.56 421.00 L 923.38 418.85 M 924.10 422.76 L 923.56 421.00 M 924.96 424.03 L 924.10 422.76 M 926.05 424.73 L 924.96 424.03 M 927.45 424.85 L 926.05 424.73 M 928.92 424.34 L 927.45 424.85 M 930.44 423.26 L 928.92 424.34 M 931.92 421.66 L 930.44 423.26 M 933.26 419.63 L 931.92 421.66 M 934.40 417.30 L 933.26 419.63 M 935.26 414.79 L 934.40 417.30 M 935.80 412.26 L 935.26 414.79 M 935.98 409.85 L 935.80 412.26 M 935.80 407.71 L 935.98 409.85 M 935.26 405.95 L 935.80 407.71 M 934.40 404.68 L 935.26 405.95 M 933.31 403.98 L 934.40 404.68 M 931.92 403.86 L 933.31 403.98 M 930.44 404.36 L 931.92 403.86 M 928.92 405.45 L 930.44 404.36 M 927.45 407.05 L 928.92 405.45 M 926.10 409.08 L 927.45 407.05 M 924.96 411.41 L 926.10 409.08 M 924.10 413.92 L 924.96 411.41 M 923.56 416.45 L 924.10 413.92 M 923.38 418.85 L 923.56 416.45 M 897.61 478.72 L 897.43 476.57 M 898.15 480.48 L 897.61 478.72 M 899.01 481.75 L 898.15 480.48 M 900.10 482.44 L 899.01 481.75 M 901.49 482.56 L 900.10 482.44 M 902.97 482.06 L 901.49 482.56 M 904.49 480.97 L 902.97 482.06 M 905.96 479.37 L 904.49 480.97 M 907.31 477.35 L 905.96 479.37 M 908.45 475.01 L 907.31 477.35 M 909.31 472.51 L 908.45 475.01 M 909.85 469.98 L 909.31 472.51 M 910.03 467.57 L 909.85 469.98 M 909.85 465.42 L 910.03 467.57 M 909.31 463.66 L 909.85 465.42 M 908.45 462.39 L 909.31 463.66 M 907.36 461.70 L 908.45 462.39 M 905.96 461.58 L 907.36 461.70 M 904.49 462.08 L 905.96 461.58 M 902.97 463.17 L 904.49 462.08 M 901.49 464.77 L 902.97 463.17 M 900.15 466.80 L 901.49 464.77 M 899.01 469.13 L 900.15 466.80 M 898.15 471.63 L 899.01 469.13 M 897.61 474.16 L 898.15 471.63 M 897.43 476.57 L 897.61 474.16 M 921.04 462.92 L 920.78 459.89 M 921.80 465.41 L 921.04 462.92 M 923.02 467.20 L 921.80 465.41 M 924.55 468.18 L 923.02 467.20 M 926.53 468.35 L 924.55 468.18 M 928.61 467.64 L 926.53 468.35 M 930.75 466.11 L 928.61 467.64 M 932.84 463.85 L 930.75 466.11 M 934.74 460.99 L 932.84 463.85 M 936.34 457.69 L 934.74 460.99 M 937.56 454.16 L 936.34 457.69 M 938.32 450.58 L 937.56 454.16 M 938.58 447.19 L 938.32 450.58 M 938.32 444.15 L 938.58 447.19 M 937.56 441.67 L 938.32 444.15 M 936.34 439.87 L 937.56 441.67 M 934.81 438.90 L 936.34 439.87 M 932.84 438.72 L 934.81 438.90 M 930.75 439.44 L 932.84 438.72 M 928.61 440.97 L 930.75 439.44 M 926.53 443.23 L 928.61 440.97 M 924.63 446.09 L 926.53 443.23 M 923.02 449.39 L 924.63 446.09 M 921.80 452.92 L 923.02 449.39 M 921.04 456.49 L 921.80 452.92 M 920.78 459.89 L 921.04 456.49 M 949.51 441.65 L 949.33 439.51 M 950.05 443.41 L 949.51 441.65 M 950.92 444.69 L 950.05 443.41 M 952.00 445.38 L 950.92 444.69 M 953.40 445.50 L 952.00 445.38 M 954.87 445.00 L 953.40 445.50 M 956.39 443.91 L 954.87 445.00 M 957.87 442.31 L 956.39 443.91 M 959.21 440.28 L 957.87 442.31 M 960.35 437.95 L 959.21 440.28 M 961.21 435.44 L 960.35 437.95 M 961.75 432.91 L 961.21 435.44 M 961.94 430.51 L 961.75 432.91 M 961.75 428.36 L 961.94 430.51 M 961.21 426.60 L 961.75 428.36 M 960.35 425.33 L 961.21 426.60 M 959.26 424.64 L 960.35 425.33 M 957.87 424.51 L 959.26 424.64 M 956.39 425.02 L 957.87 424.51 M 954.87 426.10 L 956.39 425.02 M 953.40 427.71 L 954.87 426.10 M 952.05 429.73 L 953.40 427.71 M 950.92 432.07 L 952.05 429.73 M 950.05 434.57 L 950.92 432.07 M 949.51 437.10 L 950.05 434.57 M 949.33 439.51 L 949.51 437.10 M 923.56 499.37 L 923.38 497.22 M 924.10 501.13 L 923.56 499.37 M 924.96 502.40 L 924.10 501.13 M 926.05 503.09 L 924.96 502.40 M 927.45 503.22 L 926.05 503.09 M 928.92 502.71 L 927.45 503.22 M 930.44 501.63 L 928.92 502.71 M 931.92 500.03 L 930.44 501.63 M 933.26 498.00 L 931.92 500.03 M 934.40 495.66 L 933.26 498.00 M 935.26 493.16 L 934.40 495.66 M 935.80 490.63 L 935.26 493.16 M 935.98 488.22 L 935.80 490.63 M 935.80 486.08 L 935.98 488.22 M 935.26 484.32 L 935.80 486.08 M 934.40 483.04 L 935.26 484.32 M 933.31 482.35 L 934.40 483.04 M 931.92 482.23 L 933.31 482.35 M 930.44 482.73 L 931.92 482.23 M 928.92 483.82 L 930.44 482.73 M 927.45 485.42 L 928.92 483.82 M 926.10 487.45 L 927.45 485.42 M 924.96 489.78 L 926.10 487.45 M 924.10 492.29 L 924.96 489.78 M 923.56 494.82 L 924.10 492.29 M 923.38 497.22 L 923.56 494.82 M 922.57 452.87 L 921.22 455.65 M 923.79 449.34 L 922.57 452.87 M 924.37 446.61 L 923.79 449.34 M 895.12 491.08 L 894.09 478.95 M 898.17 501.02 L 895.12 491.08 M 903.04 508.20 L 898.17 501.02 M 909.17 512.10 L 903.04 508.20 M 917.06 512.80 L 909.17 512.10 M 925.39 509.95 L 917.06 512.80 M 933.97 503.82 L 925.39 509.95 M 942.30 494.77 L 933.97 503.82 M 949.90 483.33 L 942.30 494.77 M 956.32 470.15 L 949.90 483.33 M 961.20 456.01 L 956.32 470.15 M 964.24 441.72 L 961.20 456.01 M 965.27 428.12 L 964.24 441.72 M 964.24 416.00 L 965.27 428.12 M 961.20 406.06 L 964.24 416.00 M 956.32 398.88 L 961.20 406.06 M 950.19 394.97 L 956.32 398.88 M 942.30 394.28 L 950.19 394.97 M 933.97 397.13 L 942.30 394.28 M 925.39 403.26 L 933.97 397.13 M 917.06 412.30 L 925.39 403.26 M 909.46 423.75 L 917.06 412.30 M 903.04 436.93 L 909.46 423.75 M 898.17 451.07 L 903.04 436.93 M 895.12 465.35 L 898.17 451.07 M 894.09 478.95 L 895.12 465.35 M 881.36 486.26 L 880.32 474.13 M 884.40 496.20 L 881.36 486.26 M 889.27 503.38 L 884.40 496.20 M 895.41 507.28 L 889.27 503.38 M 928.53 389.46 L 936.42 390.15 M 920.20 392.31 L 928.53 389.46 M 911.62 398.44 L 920.20 392.31 M 903.29 407.48 L 911.62 398.44 M 895.70 418.93 L 903.29 407.48 M 889.27 432.11 L 895.70 418.93 M 884.40 446.25 L 889.27 432.11 M 881.36 460.54 L 884.40 446.25 M 880.32 474.13 L 881.36 460.54" fill="none" stroke="#111" stroke-width="1.10" stroke-linecap="round" stroke-linejoin="round"/>
<path d="M 556.90 292.63 L 556.71 290.48 M 557.43 294.39 L 556.90 292.63 M 558.30 295.66 L 557.43 294.39 M 559.38 296.35 L 558.30 295.66 M 560.78 296.48 L 559.38 296.35 M 562.26 295.97 L 560.78 296.48 M 563.77 294.89 L 562.26 295.97 M 565.25 293.29 L 563.77 294.89 M 566.60 291.26 L 565.25 293.29 M 567.73 288.92 L 566.60 291.26 M 568.60 286.42 L 567.73 288.92 M 569.13 283.89 L 568.60 286.42 M 569.32 281.48 L 569.13 283.89 M 569.13 279.34 L 569.32 281.48 M 568.60 277.58 L 569.13 279.34 M 567.73 276.30 L 568.60 277.58 M 566.65 275.61 L 567.73 276.30 M 565.25 275.49 L 566.65 275.61 M 563.77 275.99 L 565.25 275.49 M 562.26 277.08 L 563.77 275.99 M 560.78 278.68 L 562.26 277.08 M 559.43 280.71 L 560.78 278.68 M 558.30 283.04 L 559.43 280.71 M 557.43 285.55 L 558.30 283.04 M 556.90 288.08 L 557.43 285.55 M 556.71 290.48 L 556.90 288.08 M 530.94 350.35 L 530.76 348.20 M 531.48 352.11 L 530.94 350.35 M 532.35 353.38 L 531.48 352.11 M 533.43 354.07 L 532.35 353.38 M 534.83 354.19 L 533.43 354.07 M 536.30 353.69 L 534.83 354.19 M 537.82 352.60 L 536.30 353.69 M 539.30 351.00 L 537.82 352.60 M 540.64 348.97 L 539.30 351.00 M 541.78 346.64 L 540.64 348.97 M 542.64 344.14 L 541.78 346.64 M 543.18 341.61 L 542.64 344.14 M 543.37 339.20 L 543.18 341.61 M 543.18 337.05 L 543.37 339.20 M 542.64 335.29 L 543.18 337.05 M 541.78 334.02 L 542.64 335.29 M 540.69 333.33 L 541.78 334.02 M 539.30 333.21 L 540.69 333.33 M 537.82 333.71 L 539.30 333.21 M 536.30 334.80 L 537.82 333.71 M 534.83 336.40 L 536.30 334.80 M 533.48 338.42 L 534.83 336.40 M 532.35 340.76 L 533.48 338.42 M 531.48 343.26 L 532.35 340.76 M 530.94 345.79 L 531.48 343.26 M 530.76 348.20 L 530.94 345.79 M 554.38 334.55 L 554.12 331.52 M 555.14 337.04 L 554.38 334.55 M 556.35 338.83 L 555.14 337.04 M 557.89 339.81 L 556.35 338.83 M 559.86 339.98 L 557.89 339.81 M 561.94 339.27 L 559.86 339.98 M 564.09 337.74 L 561.94 339.27 M 566.17 335.48 L 564.09 337.74 M 568.07 332.61 L 566.17 335.48 M 569.68 329.32 L 568.07 332.61 M 570.89 325.79 L 569.68 329.32 M 571.65 322.21 L 570.89 325.79 M 571.91 318.81 L 571.65 322.21 M 571.65 315.78 L 571.91 318.81 M 570.89 313.30 L 571.65 315.78 M 569.68 311.50 L 570.89 313.30 M 568.14 310.53 L 569.68 311.50 M 566.17 310.35 L 568.14 310.53 M 564.09 311.07 L 566.17 310.35 M 561.94 312.60 L 564.09 311.07 M 559.86 314.86 L 561.94 312.60 M 557.96 317.72 L 559.86 314.86 M 556.35 321.01 L 557.96 317.72 M 555.14 324.55 L 556.35 321.01 M 554.38 328.12 L 555.14 324.55 M 554.12 331.52 L 554.38 328.12 M 582.85 313.28 L 582.66 311.14 M 583.39 315.04 L 582.85 313.28 M 584.25 316.32 L 583.39 315.04 M 585.34 317.01 L 584.25 316.32 M 586.73 317.13 L 585.34 317.01 M 588.21 316.63 L 586.73 317.13 M 589.73 315.54 L 588.21 316.63 M 591.20 313.94 L 589.73 315.54 M 592.55 311.91 L 591.20 313.94 M 593.68 309.58 L 592.55 311.91 M 594.55 307.07 L 593.68 309.58 M 595.09 304.54 L 594.55 307.07 M 595.27 302.14 L 595.09 304.54 M 595.09 299.99 L 595.27 302.14 M 594.55 298.23 L 595.09 299.99 M 593.68 296.96 L 594.55 298.23 M 592.60 296.26 L 593.68 296.96 M 591.20 296.14 L 592.60 296.26 M 589.73 296.65 L 591.20 296.14 M 588.21 297.73 L 589.73 296.65 M 586.73 299.33 L 588.21 297.73 M 585.39 301.36 L 586.73 299.33 M 584.25 303.69 L 585.39 301.36 M 583.39 306.20 L 584.25 303.69 M 582.85 308.73 L 583.39 306.20 M 582.66 311.14 L 582.85 308.73 M 556.90 371.00 L 556.71 368.85 M 557.43 372.76 L 556.90 371.00 M 558.30 374.03 L 557.43 372.76 M 559.38 374.72 L 558.30 374.03 M 560.78 374.85 L 559.38 374.72 M 562.26 374.34 L 560.78 374.85 M 563.77 373.26 L 562.26 374.34 M 565.25 371.65 L 563.77 373.26 M 566.60 369.63 L 565.25 371.65 M 567.73 367.29 L 566.60 369.63 M 568.60 364.79 L 567.73 367.29 M 569.13 362.26 L 568.60 364.79 M 569.32 359.85 L 569.13 362.26 M 569.13 357.71 L 569.32 359.85 M 568.60 355.94 L 569.13 357.71 M 567.73 354.67 L 568.60 355.94 M 566.65 353.98 L 567.73 354.67 M 565.25 353.86 L 566.65 353.98 M 563.77 354.36 L 565.25 353.86 M 562.26 355.45 L 563.77 354.36 M 560.78 357.05 L 562.26 355.45 M 559.43 359.08 L 560.78 357.05 M 558.30 361.41 L 559.43 359.08 M 557.43 363.91 L 558.30 361.41 M 556.90 366.44 L 557.43 363.91 M 556.71 368.85 L 556.90 366.44 M 555.91 324.50 L 554.56 327.28 M 557.13 320.97 L 555.91 324.50 M 557.71 318.24 L 557.13 320.97 M 528.46 362.70 L 527.42 350.58 M 531.50 372.65 L 528.46 362.70 M 536.37 379.83 L 531.50 372.65 M 542.51 383.73 L 536.37 379.83 M 550.39 384.43 L 542.51 383.73 M 558.72 381.58 L 550.39 384.43 M 567.31 375.45 L 558.72 381.58 M 575.64 366.40 L 567.31 375.45 M 583.23 354.96 L 575.64 366.40 M 589.66 341.78 L 583.23 354.96 M 594.53 327.64 L 589.66 341.78 M 597.57 313.35 L 594.53 327.64 M 598.61 299.75 L 597.57 313.35 M 597.57 287.63 L 598.61 299.75 M 594.53 277.69 L 597.57 287.63 M 589.66 270.51 L 594.53 277.69 M 583.52 266.60 L 589.66 270.51 M 575.64 265.91 L 583.52 266.60 M 567.31 268.76 L 575.64 265.91 M 558.72 274.88 L 567.31 268.76 M 550.39 283.93 L 558.72 274.88 M 542.80 295.38 L 550.39 283.93 M 536.37 308.56 L 542.80 295.38 M 531.50 322.70 L 536.37 308.56 M 528.46 336.98 L 531.50 322.70 M 527.42 350.58 L 528.46 336.98 M 514.69 357.89 L 513.66 345.76 M 517.73 367.83 L 514.69 357.89 M 522.61 375.01 L 517.73 367.83 M 528.74 378.91 L 522.61 375.01 M 561.87 261.09 L 569.76 261.78 M 553.54 263.94 L 561.87 261.09 M 544.96 270.06 L 553.54 263.94 M 536.63 279.11 L 544.96 270.06 M 529.03 290.56 L 536.63 279.11 M 522.61 303.74 L 529.03 290.56 M 517.73 317.88 L 522.61 303.74 M 514.69 332.16 L 517.73 317.88 M 513.66 345.76 L 514.69 332.16" fill="none" stroke="#111" stroke-width="1.10" stroke-linecap="round" stroke-linejoin="round"/>
<path d="M 1010.00 451.48 L 1012.01 451.88 L 1014.07 451.70 L 1016.04 450.96 L 1017.80 449.71 L 1019.21 448.03 L 1020.19 446.04 L 1020.67 443.88 L 1020.61 441.68 L 1020.01 439.61 L 1018.93 437.80 L 1017.43 436.38 L 1015.62 435.44 L 1013.88 440.41 L 979.22 428.28 L 977.08 434.37 L 1011.74 446.51 Z" fill="#fff" stroke="#111" stroke-width="1.20" stroke-linecap="round" stroke-linejoin="round"/>
<path d="M 992.68 439.83 L 992.57 432.95" stroke="#111" stroke-width="0.85" fill="none" stroke-linecap="round"/>
<path d="M 986.79 437.77 L 986.68 430.89" stroke="#111" stroke-width="0.85" fill="none" stroke-linecap="round"/>
<path d="M 980.90 435.71 L 980.78 428.82" stroke="#111" stroke-width="0.85" fill="none" stroke-linecap="round"/>
<text x="1036.92" y="454.90" font-size="9.5" font-weight="700" text-anchor="middle" fill="#111">4X</text>
<path d="M 1121.69 528.18 L 1122.93 528.36 L 1124.24 528.08 L 1125.54 527.35 L 1126.73 526.24 L 1127.74 524.80 L 1128.49 523.14 L 1128.94 521.38 L 1129.05 519.63 L 1128.81 518.01 L 1128.25 516.64 L 1127.40 515.60 L 1126.31 514.96 L 1124.93 518.93 L 1105.10 511.99 L 1103.25 517.27 L 1123.07 524.21 Z" fill="#fff" stroke="#111" stroke-width="1.20" stroke-linecap="round" stroke-linejoin="round"/>
<path d="M 1112.17 520.40 L 1112.17 514.46" stroke="#111" stroke-width="0.85" fill="none" stroke-linecap="round"/>
<path d="M 1106.23 518.32 L 1106.23 512.38" stroke="#111" stroke-width="0.85" fill="none" stroke-linecap="round"/>
<path d="M 382.77 235.47 L 384.35 235.59 L 386.08 234.94 L 387.86 233.56 L 389.56 231.55 L 391.06 229.04 L 392.27 226.20 L 393.09 223.24 L 393.48 220.34 L 393.41 217.70 L 392.88 215.52 L 391.93 213.93 L 390.62 213.04 L 389.05 212.92 L 387.31 213.57 L 385.54 214.95 L 383.84 216.96 L 382.33 219.47 L 381.13 222.30 L 380.30 225.27 L 379.91 228.17 L 379.98 230.80 L 380.51 232.99 L 381.46 234.58 L 382.77 235.47 Z" fill="#fff" stroke="#111" stroke-width="1.15" stroke-linecap="round" stroke-linejoin="round"/>
<path d="M 384.68 230.03 L 385.49 230.09 L 386.38 229.76 L 387.30 229.05 L 388.17 228.01 L 388.95 226.72 L 389.57 225.26 L 389.99 223.73 L 390.19 222.24 L 390.16 220.88 L 389.88 219.75 L 389.39 218.93 L 388.72 218.48 L 387.91 218.41 L 387.01 218.75 L 386.10 219.46 L 385.22 220.50 L 384.45 221.79 L 383.83 223.25 L 383.40 224.78 L 383.20 226.27 L 383.24 227.63 L 383.51 228.75 L 384.00 229.57 L 384.68 230.03 Z" fill="#fff" stroke="#111" stroke-width="1.00" stroke-linecap="round" stroke-linejoin="round"/>
<path d="M 315.38 190.28 L 313.37 189.88 L 311.31 190.06 L 309.34 190.80 L 307.58 192.05 L 306.17 193.73 L 305.19 195.72 L 304.71 197.88 L 304.77 200.08 L 305.37 202.15 L 306.45 203.96 L 307.95 205.38 L 309.76 206.32 L 311.50 201.35 L 349.69 214.72 L 351.83 208.62 L 313.64 195.25 Z" fill="#fff" stroke="#111" stroke-width="1.20" stroke-linecap="round" stroke-linejoin="round"/>
<path d="M 334.64 202.61 L 334.75 209.49" stroke="#111" stroke-width="0.85" fill="none" stroke-linecap="round"/>
<path d="M 341.13 204.88 L 341.24 211.76" stroke="#111" stroke-width="0.85" fill="none" stroke-linecap="round"/>
<path d="M 347.62 207.15 L 347.74 214.04" stroke="#111" stroke-width="0.85" fill="none" stroke-linecap="round"/>
<text x="288.46" y="192.86" font-size="9.5" font-weight="700" text-anchor="middle" fill="#111">4X</text>
<path d="M 908.01 541.60 L 915.45 543.33 L 920.36 529.31 L 913.47 526.02 L 911.78 530.85 L 885.09 521.51 L 873.68 520.83 L 883.02 527.43 L 909.70 536.77 Z" fill="#fff" stroke="#111" stroke-width="1.20" stroke-linecap="round" stroke-linejoin="round"/>
<path d="M 898.59 532.88 L 897.13 529.04" stroke="#111" stroke-width="0.85" fill="none" stroke-linecap="round"/>
<path d="M 897.13 529.04 L 900.66 526.96" stroke="#111" stroke-width="0.85" fill="none" stroke-linecap="round"/>
<path d="M 891.17 530.28 L 889.72 526.45" stroke="#111" stroke-width="0.85" fill="none" stroke-linecap="round"/>
<path d="M 889.72 526.45 L 893.24 524.36" stroke="#111" stroke-width="0.85" fill="none" stroke-linecap="round"/>
<path d="M 884.50 527.94 L 883.04 524.11" stroke="#111" stroke-width="0.85" fill="none" stroke-linecap="round"/>
<path d="M 883.04 524.11 L 886.57 522.03" stroke="#111" stroke-width="0.85" fill="none" stroke-linecap="round"/>
<text x="934.31" y="545.06" font-size="9.5" font-weight="700" text-anchor="middle" fill="#111">6X</text>
<circle cx="312.57" cy="198.30" r="2.1" fill="#111"/>
<path d="M 312.57 198.30 L 234.00 181.30 L 224.00 181.30" stroke="#111" stroke-width="0.7" fill="none"/>
<text x="224.00" y="181.30" font-size="12.5" font-weight="700" text-anchor="end" fill="#111">4X M3×8 + WASHER</text>
<text x="224.00" y="195.80" font-size="12.5" font-weight="400" text-anchor="end" fill="#111">into the idler disc</text>
<text x="224.00" y="210.30" font-size="12.5" font-weight="400" text-anchor="end" fill="#111">(same Ø14 pattern)</text>
<circle cx="560.46" cy="324.30" r="2.1" fill="#111"/>
<path d="M 560.46 324.30 L 234.00 307.30 L 224.00 307.30" stroke="#111" stroke-width="0.7" fill="none"/>
<text x="224.00" y="307.30" font-size="12.5" font-weight="700" text-anchor="end" fill="#111">IDLER DISC</text>
<text x="224.00" y="321.80" font-size="12.5" font-weight="400" text-anchor="end" fill="#111">free-spinning; same</text>
<text x="224.00" y="336.30" font-size="12.5" font-weight="400" text-anchor="end" fill="#111">Ø14 pattern</text>
<circle cx="781.92" cy="407.53" r="2.1" fill="#111"/>
<path d="M 781.92 407.53 L 234.00 390.53 L 224.00 390.53" stroke="#111" stroke-width="0.7" fill="none"/>
<text x="224.00" y="390.53" font-size="12.5" font-weight="700" text-anchor="end" fill="#111">SERVO  STS3215</text>
<text x="224.00" y="405.03" font-size="12.5" font-weight="400" text-anchor="end" fill="#111">case gripped by</text>
<text x="224.00" y="419.53" font-size="12.5" font-weight="400" text-anchor="end" fill="#111">the adjacent link</text>
<circle cx="927.12" cy="452.67" r="2.1" fill="#111"/>
<path d="M 927.12 452.67 L 1126.00 435.67 L 1136.00 435.67" stroke="#111" stroke-width="0.7" fill="none"/>
<text x="1136.00" y="435.67" font-size="12.5" font-weight="700" text-anchor="start" fill="#111">HORN DISC + 4X M3×6</text>
<text x="1136.00" y="450.17" font-size="12.5" font-weight="400" text-anchor="start" fill="#111">button head into the</text>
<text x="1136.00" y="464.67" font-size="12.5" font-weight="400" text-anchor="start" fill="#111">horn (servo's kit)</text>
<circle cx="401.68" cy="477.40" r="2.1" fill="#111"/>
<path d="M 401.68 477.40 L 1126.00 493.17 L 1136.00 493.17" stroke="#111" stroke-width="0.7" fill="none"/>
<text x="1136.00" y="493.17" font-size="12.5" font-weight="700" text-anchor="start" fill="#111">LEG_LINK  (fork)</text>
<text x="1136.00" y="507.67" font-size="12.5" font-weight="400" text-anchor="start" fill="#111">rotates with the horn</text>
<circle cx="1124.00" cy="521.57" r="2.1" fill="#111"/>
<path d="M 1124.00 521.57 L 1126.00 536.17 L 1136.00 536.17" stroke="#111" stroke-width="0.7" fill="none"/>
<text x="1136.00" y="536.17" font-size="12.5" font-weight="700" text-anchor="start" fill="#111">SPLINE SCREW</text>
<text x="1136.00" y="550.67" font-size="12.5" font-weight="400" text-anchor="start" fill="#111">horn onto shaft (§1)</text>
<circle cx="910.74" cy="533.81" r="2.1" fill="#111"/>
<path d="M 910.74 533.81 L 1126.00 579.17 L 1136.00 579.17" stroke="#111" stroke-width="0.7" fill="none"/>
<text x="1136.00" y="579.17" font-size="12.5" font-weight="700" text-anchor="start" fill="#111">6X M3×8 SELF-TAP</text>
<text x="1136.00" y="593.67" font-size="12.5" font-weight="400" text-anchor="start" fill="#111">case grip (into the</text>
<text x="1136.00" y="608.17" font-size="12.5" font-weight="400" text-anchor="start" fill="#111">adjacent link)</text>
<text x="680" y="850" font-size="22" font-weight="700" text-anchor="middle" fill="#111" font-style="italic">FIGURE J — TYPICAL LEG JOINT (KNEE)  ·  all hardware</text>
<text x="680" y="865" font-size="11" letter-spacing="1.5" text-anchor="middle" fill="#111">FASTENERS ENLARGED FOR CLARITY · ONE GLYPH SHOWN PER GROUP (NX)</text>
</svg>